<?xml version="1.0" encoding="utf-8"?>
<!-- Generator: Adobe Illustrator 25.0.0, SVG Export Plug-In . SVG Version: 6.00 Build 0)  -->
<svg version="1.1" id="Capa_1" xmlns="http://www.w3.org/2000/svg" xmlns:xlink="http://www.w3.org/1999/xlink" x="0px" y="0px"
	 viewBox="0 0 92 233" style="enable-background:new 0 0 92 233;" xml:space="preserve">
<style type="text/css">
	.st0{fill:#FFFFFF;stroke:#A1ACB9;stroke-width:5;}
	.st1{fill:#FFFFFF;fill-opacity:0;stroke:#A1ACB9;stroke-width:5;}
</style>
<desc>Created with Fabric.js 5.3.0</desc>
<g id="iKFDj0kg9Z7rAJNhnUljb" transform="matrix(1.0082094074 0 0 -1 46 133.9974147225)">
	<path class="st0" d="M-29.8,95V-70c0,0,0.8-5.9,3.3-10c2.5-4.1,3-4.3,6.6-7.4c3.6-3.1,8.3-5,8.3-5S-7.1-94.9,0-95s6.5,0.3,11.5,2.4
		c5,2.1,8.3,5.2,8.3,5.2s4.3,3.2,6.8,7.4c2.5,4.2,3.2,10,3.2,10V95"/>
</g>
<g id="XN8UZQ70T0RvsJ5VMa4Kb" transform="matrix(1 0 0 1 16 27)">
	<path class="st1" d="M0,13v-26"/>
</g>
<g id="NRt2ceM2nUSDG_63RTn7p" transform="matrix(1 0 0 1 11.9994100494 12)">
	<path class="st1" d="M8,2C8,2-0.1,2-6,2c-1.2,0-2-1-2-4"/>
</g>
<g id="s8SYpRxWPAIU3cJdedely" transform="matrix(1 0 0 -1 45.9996619784 6.0000673856)">
	<path class="st1" d="M42-2c0,1.3-0.1,4-2,4s-74.7,0-80,0c-1.2,0-2-1-2-4"/>
</g>
<g id="jr_bdNPwxVP1tR-x2jqCO" transform="matrix(-1 0 0 1 79.9994100494 12)">
	<path class="st1" d="M8,2C8,2-0.1,2-6,2c-1.2,0-2-1-2-4"/>
</g>
<g id="R4Pa0_qX7JfWipx57qbDI" transform="matrix(1 0 0 1 4 9.0457552091)">
	<path class="st1" d="M0-1.6v3.2"/>
</g>
<g id="dlFIQRIEBrFAhFefXz443" transform="matrix(1 0 0 1 88 8.9545143332)">
	<path class="st1" d="M0-1.7v3.4"/>
</g>
<g id="P_XejN-1qaYsxss16zLwI" transform="matrix(1 0 0 1 76 27)">
	<path class="st1" d="M0,13v-26"/>
</g>
<g id="lTDpCcKC40D5A8sL1xawP" transform="matrix(1 0 0 1 45.9993239532 14.0001347711)">
	<path class="st1" d="M-28,0h56"/>
</g>
</svg>
